<?xml version="1.0" encoding="utf-8"?>
<!-- Generator: Adobe Illustrator 16.0.0, SVG Export Plug-In . SVG Version: 6.00 Build 0)  -->
<!DOCTYPE svg PUBLIC "-//W3C//DTD SVG 1.1//EN" "http://www.w3.org/Graphics/SVG/1.1/DTD/svg11.dtd">
<svg version="1.1" id="Layer_1" xmlns="http://www.w3.org/2000/svg" xmlns:xlink="http://www.w3.org/1999/xlink" x="0px" y="0px"
	 width="340.749px" height="86.7px" viewBox="0 0 340.749 86.7" enable-background="new 0 0 340.749 86.7" xml:space="preserve">
<g>
	<g>
		<path fill="#608C61" d="M22.175,17.79C17.633,17.857,8.909,24.823,6.413,55.7c0,0-8-27,6.3-40.156
			c-0.736-0.562-5.542-1.468-5.542-1.468S-9.763,43.51,8.413,64.2c0,0-0.094-33.132,17.451-43.645
			C25.427,19.509,23.049,18.826,22.175,17.79z"/>
	</g>
	<g>
		<g>
			<path fill="none" d="M15.636,15.29l4.847,2.707C19.085,17.05,17.492,16.138,15.636,15.29z"/>
		</g>
		<g>
			<path fill="#84C18E" d="M48.413,53.7c12.4-16.61-2.137-28.941-2.137-28.941c-3.946-5.471-11.833-9.237-16.144-10.733
				C53.337,31.935,42.413,45.7,42.413,45.7c-13.082,14.818,6.621,40.722,3,35.5C31.287,64.422,33.934,47.7,33.934,47.7
				c14.71-21.438-11.089-35.366-11.089-35.366c-7.323-1.256-15.129,1.828-15.129,1.828c1.856,0.846,13.223,3.781,15.417,5.89
				c0,0-0.008,0.007-0.009,0.011c1.45,1.314,2.583,2.682,3.429,4.073c5.753,9.455-1.059,19.855-1.059,19.855
				C13.106,66.556,48.913,86.7,48.913,86.7C42.342,65.545,48.413,53.7,48.413,53.7z"/>
		</g>
	</g>
	<g>
		<path fill="#FFFFFF" d="M92.155,58.266h-4.334l-3.958-5.631c-0.513,0.067-1.093,0.102-1.674,0.102h-2.285v5.529h-3.652V35.058
			h5.938c6.382,0,9.898,3.515,9.898,8.873c0,3.584-1.604,6.349-4.643,7.747L92.155,58.266z M82.054,49.597
			c4.471,0,6.279-2.116,6.279-5.666c0-3.515-1.843-5.631-6.279-5.631h-2.149v11.297H82.054z"/>
		<path fill="#FFFFFF" d="M106.044,46.661c0-6.86,5.324-11.91,11.979-11.91c6.654,0,11.979,5.05,11.979,11.91
			s-5.325,11.911-11.979,11.911C111.368,58.572,106.044,53.521,106.044,46.661z M126.214,46.661c0-4.914-3.379-8.6-8.19-8.6
			c-4.812,0-8.191,3.686-8.191,8.6c0,4.915,3.379,8.601,8.191,8.601C122.835,55.262,126.214,51.576,126.214,46.661z"/>
		<path fill="#FFFFFF" d="M143.72,46.661c0-6.86,5.324-11.91,11.979-11.91c6.654,0,11.979,5.05,11.979,11.91
			s-5.325,11.911-11.979,11.911C149.044,58.572,143.72,53.521,143.72,46.661z M163.89,46.661c0-4.914-3.379-8.6-8.19-8.6
			c-4.812,0-8.191,3.686-8.191,8.6c0,4.915,3.379,8.601,8.191,8.601C160.511,55.262,163.89,51.576,163.89,46.661z"/>
		<path fill="#FFFFFF" d="M186.344,38.3h-6.894v-3.242h17.439V38.3h-6.894v19.966h-3.652V38.3z"/>
		<path fill="#84C18E" d="M211.153,35.058h8.225c4.642,0,6.791,2.627,6.791,5.938c0,2.049-1.091,3.551-2.798,4.403
			c2.73,0.785,4.437,2.868,4.437,5.87c0,3.925-2.491,6.997-7.815,6.997h-8.839V35.058z M219.174,44.17
			c2.524,0,3.378-1.159,3.378-3.071c0-1.775-0.819-2.901-3.378-2.901h-4.403v5.973H219.174z M219.787,55.126
			c3.208,0,4.301-1.604,4.301-3.994c0-2.388-1.297-4.026-4.472-4.026h-4.846v8.021H219.787z"/>
		<path fill="#84C18E" d="M241.218,46.661c0-6.86,5.323-11.91,11.979-11.91c6.653,0,11.979,5.05,11.979,11.91
			s-5.326,11.911-11.979,11.911C246.541,58.572,241.218,53.521,241.218,46.661z M261.387,46.661c0-4.914-3.378-8.6-8.189-8.6
			c-4.813,0-8.191,3.686-8.191,8.6c0,4.915,3.378,8.601,8.191,8.601C258.009,55.262,261.387,51.576,261.387,46.661z"/>
		<path fill="#84C18E" d="M278.893,46.661c0-6.86,5.324-11.91,11.979-11.91c6.654,0,11.979,5.05,11.979,11.91
			s-5.325,11.911-11.979,11.911C284.217,58.572,278.893,53.521,278.893,46.661z M299.062,46.661c0-4.914-3.379-8.6-8.19-8.6
			c-4.812,0-8.191,3.686-8.191,8.6c0,4.915,3.379,8.601,8.191,8.601C295.684,55.262,299.062,51.576,299.062,46.661z"/>
		<path fill="#84C18E" d="M330.391,35.058h4.13l-8.227,10.409l9.455,12.799h-4.438l-7.406-10.034l-2.559,3.14v6.895h-3.652V35.058
			h3.652V46.56L330.391,35.058z"/>
	</g>
	<g>
		<path fill="#84C18E" d="M17.623,14.593c0,0-0.028-0.066-0.083-0.192c-0.044-0.105-0.12-0.275-0.235-0.511
			c-0.22-0.46-0.562-1.124-1.022-1.898c-0.451-0.781-1.04-1.658-1.708-2.575c-0.342-0.451-0.704-0.913-1.086-1.37
			c-0.399-0.438-0.777-0.921-1.215-1.336c-0.424-0.433-0.85-0.866-1.306-1.248c-0.224-0.198-0.446-0.396-0.666-0.589
			C10.069,4.696,9.84,4.521,9.614,4.35c-0.227-0.172-0.45-0.342-0.669-0.508C8.714,3.694,8.489,3.551,8.27,3.41
			C7.832,3.124,7.415,2.854,7.003,2.658C6.597,2.447,6.224,2.253,5.894,2.082C5.549,1.942,5.249,1.82,5.001,1.72
			C4.503,1.517,4.218,1.4,4.218,1.4L4.608,0c0,0,0.32,0.085,0.879,0.233C5.769,0.309,6.11,0.4,6.501,0.506
			c0.38,0.14,0.81,0.298,1.278,0.471C8.257,1.136,8.744,1.37,9.261,1.621C9.52,1.745,9.787,1.873,10.06,2.004
			c0.261,0.15,0.528,0.304,0.799,0.46c0.272,0.158,0.548,0.318,0.828,0.481c0.267,0.182,0.537,0.365,0.809,0.551
			c0.556,0.36,1.082,0.773,1.607,1.191c0.541,0.401,1.018,0.869,1.521,1.301c0.482,0.45,0.945,0.908,1.385,1.358
			c0.862,0.916,1.636,1.807,2.248,2.613c0.622,0.8,1.104,1.5,1.433,2.011c0.162,0.248,0.294,0.462,0.387,0.622
			c0.083,0.14,0.127,0.215,0.127,0.215L17.623,14.593z"/>
	</g>
</g>
</svg>
