<?xml version="1.0" encoding="utf-8"?>
<!-- Generator: Adobe Illustrator 16.0.0, SVG Export Plug-In . SVG Version: 6.00 Build 0)  -->
<!DOCTYPE svg PUBLIC "-//W3C//DTD SVG 1.1//EN" "http://www.w3.org/Graphics/SVG/1.1/DTD/svg11.dtd">
<svg version="1.1" id="Layer_1" xmlns="http://www.w3.org/2000/svg" xmlns:xlink="http://www.w3.org/1999/xlink" x="0px" y="0px"
	 width="259.498px" height="23.821px" viewBox="76.252 34.751 259.498 23.821"
	 enable-background="new 76.252 34.751 259.498 23.821" xml:space="preserve">
<g>
	<g>
		<path fill="#FFFFFF" d="M92.155,58.266h-4.334l-3.958-5.631c-0.513,0.066-1.093,0.102-1.674,0.102h-2.285v5.529h-3.652V35.058
			h5.938c6.382,0,9.898,3.515,9.898,8.873c0,3.584-1.604,6.349-4.643,7.747L92.155,58.266z M82.054,49.597
			c4.471,0,6.279-2.116,6.279-5.666c0-3.515-1.843-5.631-6.279-5.631h-2.149v11.297H82.054z"/>
		<path fill="#FFFFFF" d="M106.044,46.661c0-6.86,5.324-11.91,11.979-11.91c6.654,0,11.979,5.05,11.979,11.91
			c0,6.86-5.325,11.911-11.979,11.911C111.368,58.572,106.044,53.521,106.044,46.661z M126.214,46.661c0-4.914-3.379-8.6-8.19-8.6
			c-4.812,0-8.191,3.686-8.191,8.6c0,4.916,3.379,8.602,8.191,8.602C122.835,55.262,126.214,51.577,126.214,46.661z"/>
		<path fill="#FFFFFF" d="M143.72,46.661c0-6.86,5.324-11.91,11.979-11.91c6.654,0,11.979,5.05,11.979,11.91
			c0,6.86-5.325,11.911-11.979,11.911C149.044,58.572,143.72,53.521,143.72,46.661z M163.89,46.661c0-4.914-3.379-8.6-8.19-8.6
			c-4.812,0-8.191,3.686-8.191,8.6c0,4.916,3.379,8.602,8.191,8.602C160.511,55.262,163.89,51.577,163.89,46.661z"/>
		<path fill="#FFFFFF" d="M186.343,38.3h-6.893v-3.242h17.438V38.3h-6.894v19.966h-3.652V38.3L186.343,38.3z"/>
		<path fill="#84C18E" d="M211.153,35.058h8.226c4.642,0,6.791,2.627,6.791,5.938c0,2.049-1.092,3.551-2.799,4.403
			c2.73,0.785,4.438,2.868,4.438,5.87c0,3.925-2.491,6.997-7.814,6.997h-8.84L211.153,35.058L211.153,35.058z M219.173,44.17
			c2.525,0,3.379-1.16,3.379-3.071c0-1.775-0.819-2.901-3.379-2.901h-4.402v5.972H219.173L219.173,44.17z M219.787,55.125
			c3.209,0,4.301-1.604,4.301-3.994c0-2.387-1.297-4.025-4.471-4.025h-4.847v8.021h5.017V55.125z"/>
		<path fill="#84C18E" d="M241.218,46.661c0-6.86,5.322-11.91,11.979-11.91c6.653,0,11.979,5.05,11.979,11.91
			c0,6.86-5.325,11.911-11.979,11.911C246.541,58.572,241.218,53.521,241.218,46.661z M261.387,46.661c0-4.914-3.378-8.6-8.188-8.6
			c-4.814,0-8.191,3.686-8.191,8.6c0,4.916,3.377,8.602,8.191,8.602C258.009,55.262,261.387,51.577,261.387,46.661z"/>
		<path fill="#84C18E" d="M278.893,46.661c0-6.86,5.323-11.91,11.979-11.91c6.653,0,11.979,5.05,11.979,11.91
			c0,6.86-5.325,11.911-11.979,11.911C284.216,58.572,278.893,53.521,278.893,46.661z M299.062,46.661c0-4.914-3.379-8.6-8.189-8.6
			c-4.812,0-8.191,3.686-8.191,8.6c0,4.916,3.379,8.602,8.191,8.602C295.684,55.262,299.062,51.577,299.062,46.661z"/>
		<path fill="#84C18E" d="M330.39,35.058h4.131l-8.227,10.409l9.455,12.799h-4.439l-7.404-10.034l-2.561,3.14v6.896h-3.65V35.058
			h3.65V46.56L330.39,35.058z"/>
	</g>
</g>
</svg>
