<?xml version="1.0" encoding="utf-8"?>
<!-- Generator: Adobe Illustrator 16.0.0, SVG Export Plug-In . SVG Version: 6.00 Build 0)  -->
<!DOCTYPE svg PUBLIC "-//W3C//DTD SVG 1.1//EN" "http://www.w3.org/Graphics/SVG/1.1/DTD/svg11.dtd">
<svg version="1.1" id="Layer_1" xmlns="http://www.w3.org/2000/svg" xmlns:xlink="http://www.w3.org/1999/xlink" x="0px" y="0px"
	 width="585.207px" height="86.701px" viewBox="0 0 585.207 86.701" enable-background="new 0 0 585.207 86.701"
	 xml:space="preserve">
<g>
	<g>
		<path fill="#608C61" d="M22.175,17.791c-4.542,0.067-13.266,7.033-15.762,37.91c0,0-8-27,6.3-40.156
			c-0.736-0.562-5.542-1.468-5.542-1.468S-9.763,43.511,8.413,64.201c0,0-0.094-33.132,17.451-43.645
			C25.427,19.51,23.049,18.827,22.175,17.791z"/>
	</g>
	<g>
		<g>
			<path fill="none" d="M15.636,15.291l4.847,2.707C19.085,17.051,17.492,16.139,15.636,15.291z"/>
		</g>
		<g>
			<path fill="#84C18E" d="M48.413,53.701c12.4-16.61-2.137-28.941-2.137-28.941c-3.946-5.471-11.833-9.237-16.144-10.733
				c23.204,17.909,12.28,31.675,12.28,31.675c-13.082,14.818,6.621,40.722,3,35.5c-14.126-16.778-11.479-33.5-11.479-33.5
				c14.71-21.438-11.089-35.366-11.089-35.366c-7.323-1.256-15.129,1.828-15.129,1.828c1.856,0.846,13.223,3.781,15.417,5.89
				c0,0-0.008,0.007-0.009,0.011c1.45,1.314,2.583,2.682,3.429,4.073c5.753,9.455-1.059,19.855-1.059,19.855
				C13.106,66.557,48.913,86.701,48.913,86.701C42.342,65.546,48.413,53.701,48.413,53.701z"/>
		</g>
	</g>
	<g>
		<path fill="#FFFFFF" d="M96.962,59.861h-4.308l-3.935-5.596c-0.509,0.067-1.086,0.101-1.663,0.101h-2.271v5.495h-3.63V36.796
			h5.901c6.343,0,9.838,3.493,9.838,8.818c0,3.562-1.595,6.311-4.614,7.7L96.962,59.861z M86.922,51.245
			c4.443,0,6.24-2.103,6.24-5.631c0-3.493-1.831-5.596-6.24-5.596h-2.137v11.227H86.922z"/>
		<path fill="#FFFFFF" d="M110.766,48.328c0-6.818,5.292-11.838,11.906-11.838s11.906,5.02,11.906,11.838
			c0,6.819-5.292,11.839-11.906,11.839S110.766,55.147,110.766,48.328z M130.812,48.328c0-4.885-3.358-8.547-8.141-8.547
			c-4.783,0-8.141,3.662-8.141,8.547c0,4.886,3.357,8.548,8.141,8.548C127.454,56.876,130.812,53.214,130.812,48.328z"/>
		<path fill="#FFFFFF" d="M148.213,48.328c0-6.818,5.291-11.838,11.906-11.838c6.613,0,11.906,5.02,11.906,11.838
			c0,6.819-5.293,11.839-11.906,11.839C153.504,60.167,148.213,55.147,148.213,48.328z M168.259,48.328
			c0-4.885-3.357-8.547-8.14-8.547c-4.783,0-8.142,3.662-8.142,8.547c0,4.886,3.358,8.548,8.142,8.548
			C164.901,56.876,168.259,53.214,168.259,48.328z"/>
		<path fill="#FFFFFF" d="M190.577,40.019h-6.853v-3.223h17.333v3.223h-6.851v19.843h-3.63V40.019z"/>
		<path fill="#FFFFFF" d="M216.186,53.79c1.052,2.034,2.849,3.121,5.224,3.121c2.441,0,4.07-1.154,4.07-3.02
			c0-2.171-1.629-2.917-3.663-3.833l-1.594-0.712c-3.393-1.493-5.7-3.257-5.7-6.853c0-3.527,2.612-6.004,6.412-6.004
			c2.95,0,5.121,1.188,6.58,3.63l-2.748,1.797c-0.882-1.491-2.035-2.238-3.765-2.238c-1.866,0-2.95,1.086-2.95,2.68
			c0,1.832,1.119,2.544,3.628,3.663l1.596,0.712c3.493,1.562,5.799,3.155,5.799,7.057c0,4.24-3.256,6.377-7.632,6.377
			c-3.9,0-6.75-1.899-8.31-4.851L216.186,53.79z"/>
		<path fill="#FFFFFF" d="M247.392,59.861h-3.63V36.796h5.901c6.343,0,9.838,3.493,9.838,8.818c0,5.292-3.528,8.786-9.838,8.786
			h-2.271V59.861z M249.527,51.178c4.444,0,6.241-2.104,6.241-5.563c0-3.493-1.831-5.596-6.241-5.596h-2.136v11.159H249.527z"/>
		<path fill="#FFFFFF" d="M289.991,59.861h-4.307l-3.935-5.596c-0.51,0.067-1.087,0.101-1.663,0.101h-2.272v5.495h-3.629V36.796
			h5.901c6.343,0,9.837,3.493,9.837,8.818c0,3.562-1.594,6.311-4.613,7.7L289.991,59.861z M279.951,51.245
			c4.444,0,6.241-2.103,6.241-5.631c0-3.493-1.832-5.596-6.241-5.596h-2.137v11.227H279.951z"/>
		<path fill="#FFFFFF" d="M305.017,36.796h3.629v23.065h-3.629V36.796z"/>
		<path fill="#FFFFFF" d="M328.015,44.699v15.162h-3.393V36.456h0.271l14.789,15.502V36.796h3.393v23.405h-0.271L328.015,44.699z"/>
		<path fill="#FFFFFF" d="M357.793,48.328c0-6.818,5.224-11.838,11.838-11.838c4.273,0,6.852,1.526,8.752,3.663l-2.51,2.375
			c-1.392-1.526-2.985-2.747-6.344-2.747c-4.681,0-7.972,3.662-7.972,8.547c0,4.886,3.325,8.548,8.582,8.548
			c2.511,0,4.274-0.576,5.598-1.458v-2.611h-6.175v-3.223h9.533v7.564c-1.934,1.594-4.614,3.019-8.956,3.019
			C363.05,60.167,357.793,55.147,357.793,48.328z"/>
		<path fill="#84C18E" d="M393.876,55.112c1.322,2.511,3.698,4.037,6.683,4.037c3.698,0,5.801-1.934,5.801-4.783
			c0-2.815-1.493-4.308-4.886-5.937l-2.102-1.017c-3.257-1.595-5.021-2.851-5.021-5.801c0-3.088,2.476-5.089,5.563-5.089
			c2.78,0,4.646,1.019,6.037,3.258l-0.813,0.475c-1.188-1.9-2.815-2.782-5.224-2.782c-2.646,0-4.512,1.764-4.512,4.139
			c0,2.511,1.391,3.426,4.443,4.919l2.069,1.017c3.867,1.9,5.495,3.697,5.495,6.818c0,3.427-2.545,5.768-6.853,5.768
			c-3.629,0-6.173-1.833-7.599-4.512L393.876,55.112z"/>
		<path fill="#84C18E" d="M427.727,37.745h-7.395v-0.949h15.876v0.949h-7.395v22.116h-1.087V37.745z"/>
		<path fill="#84C18E" d="M451.062,52.263V36.796h1.087v15.366c0,4.545,2.679,7.021,6.513,7.021c3.832,0,6.58-2.476,6.58-7.021
			V36.796h1.085v15.467c0,5.123-3.323,7.871-7.665,7.871S451.062,57.386,451.062,52.263z"/>
		<path fill="#84C18E" d="M483.656,36.796h5.156c7.734,0,12.211,4.714,12.211,11.532c0,6.819-4.443,11.533-12.211,11.533h-5.156
			V36.796z M488.643,58.878c7.497,0,11.262-4.342,11.262-10.55c0-6.207-3.765-10.549-11.262-10.549h-3.9v21.099H488.643z"/>
		<path fill="#84C18E" d="M517.032,36.796h1.084v23.065h-1.084V36.796z"/>
		<path fill="#84C18E" d="M533.956,48.328c0-6.818,5.293-11.805,11.806-11.805s11.805,4.986,11.805,11.805
			c0,6.819-5.292,11.806-11.805,11.806S533.956,55.147,533.956,48.328z M556.447,48.328c0-6.207-4.579-10.82-10.686-10.82
			c-6.105,0-10.685,4.613-10.685,10.82c0,6.208,4.579,10.821,10.685,10.821C551.868,59.149,556.447,54.536,556.447,48.328z"/>
		<path fill="#84C18E" d="M571.673,55.112c1.322,2.511,3.697,4.037,6.683,4.037c3.697,0,5.8-1.934,5.8-4.783
			c0-2.815-1.493-4.308-4.885-5.937l-2.103-1.017c-3.257-1.595-5.021-2.851-5.021-5.801c0-3.088,2.476-5.089,5.563-5.089
			c2.78,0,4.646,1.019,6.038,3.258l-0.814,0.475c-1.188-1.9-2.815-2.782-5.224-2.782c-2.646,0-4.512,1.764-4.512,4.139
			c0,2.511,1.391,3.426,4.443,4.919l2.069,1.017c3.867,1.9,5.495,3.697,5.495,6.818c0,3.427-2.545,5.768-6.852,5.768
			c-3.63,0-6.174-1.833-7.6-4.512L571.673,55.112z"/>
	</g>
	<g>
		<path fill="#84C18E" d="M17.623,14.594c0,0-0.028-0.066-0.083-0.192c-0.044-0.105-0.12-0.275-0.235-0.511
			c-0.22-0.46-0.562-1.124-1.022-1.898c-0.451-0.781-1.04-1.658-1.708-2.575c-0.342-0.451-0.704-0.913-1.086-1.37
			c-0.4-0.438-0.777-0.921-1.215-1.336c-0.424-0.433-0.85-0.866-1.306-1.248c-0.224-0.198-0.446-0.395-0.666-0.589
			C10.069,4.697,9.84,4.522,9.614,4.351C9.387,4.179,9.163,4.009,8.945,3.843C8.714,3.695,8.489,3.552,8.27,3.411
			C7.832,3.125,7.415,2.854,7.003,2.659C6.597,2.448,6.224,2.255,5.894,2.083c-0.345-0.14-0.646-0.262-0.893-0.362
			C4.503,1.518,4.218,1.402,4.218,1.402L4.608,0c0,0,0.32,0.086,0.879,0.234C5.769,0.31,6.11,0.401,6.501,0.507
			c0.38,0.14,0.81,0.298,1.278,0.471c0.478,0.159,0.965,0.394,1.481,0.645C9.52,1.746,9.787,1.874,10.06,2.005
			c0.261,0.15,0.528,0.304,0.799,0.46c0.272,0.158,0.548,0.318,0.828,0.481c0.267,0.182,0.537,0.365,0.809,0.551
			c0.556,0.36,1.082,0.773,1.607,1.191c0.541,0.401,1.018,0.869,1.521,1.301c0.482,0.45,0.945,0.908,1.385,1.358
			c0.862,0.916,1.636,1.807,2.248,2.613c0.622,0.8,1.104,1.5,1.433,2.011c0.162,0.248,0.294,0.462,0.387,0.622
			c0.083,0.14,0.127,0.215,0.127,0.215L17.623,14.594z"/>
	</g>
</g>
</svg>
