<?xml version="1.0" encoding="utf-8"?>
<!-- Generator: Adobe Illustrator 16.0.0, SVG Export Plug-In . SVG Version: 6.00 Build 0)  -->
<!DOCTYPE svg PUBLIC "-//W3C//DTD SVG 1.1//EN" "http://www.w3.org/Graphics/SVG/1.1/DTD/svg11.dtd">
<svg version="1.1" id="Layer_1" xmlns="http://www.w3.org/2000/svg" xmlns:xlink="http://www.w3.org/1999/xlink" x="0px" y="0px"
	 width="437.7px" height="73.341px" viewBox="0 0 437.7 73.341" enable-background="new 0 0 437.7 73.341" xml:space="preserve">
<g>
	<g>
		<g>
			<path fill="none" d="M4.437,5.523l6.034,1.66C8.684,6.518,6.695,5.946,4.437,5.523z"/>
		</g>
		<g>
			<path fill="#608C61" d="M15.005,9.121C19.091,11.718,4.11,14.083,8.818,60.5c0,0-10.345-35.481-1.022-54.86
				C6.212,5.107,4.762,4.711,4.762,4.711s-13.859,35.405,5.708,64.456c0,0,1.521-37.216,12.348-54.333
				C21.492,13.47,17.083,10.294,15.005,9.121z"/>
		</g>
		<g>
			<path fill="#84C18E" d="M45.051,39.907c8.948-22.13-4.58-32.45-4.58-32.45C34.659,2.442,25.017,0.455,19.902,0
				c30.25,13.5,19.197,35.287,19.197,35.287C28.914,55.602,51.692,72.49,46.302,67.664C26.267,52.86,33.332,36.665,33.332,36.665
				C43.469,8.473,11.652,1.5,11.652,1.5l0.913-0.147C7.567,3.039,4.437,5.523,4.437,5.523c2.258,0.423,4.247,0.994,6.034,1.66
				c0.268,0.101,0.542,0.195,0.8,0.302l0.001-0.004c0,0-0.319-0.485,2.655,1.255c0,0-0.006,0.01-0.006,0.015
				c1.944,1.062,3.557,2.273,4.863,3.594c8.881,8.969,4.318,22.555,4.318,22.555c-7.292,28.799,29.27,38.441,29.27,38.441
				C39.373,51.491,45.051,39.907,45.051,39.907z"/>
		</g>
	</g>
	<g>
		<path fill="#FFFFFF" d="M80.772,52.656h-3.048l-2.784-3.96c-0.36,0.048-0.769,0.071-1.177,0.071h-1.607v3.889h-2.568V36.335h4.176
			c4.488,0,6.961,2.472,6.961,6.24c0,2.521-1.128,4.465-3.265,5.448L80.772,52.656z M73.667,46.56c3.145,0,4.416-1.488,4.416-3.984
			c0-2.472-1.296-3.96-4.416-3.96h-1.512v7.944H73.667z"/>
		<path fill="#FFFFFF" d="M90.54,44.495c0-4.824,3.744-8.376,8.425-8.376c4.68,0,8.425,3.552,8.425,8.376
			c0,4.825-3.745,8.377-8.425,8.377C94.284,52.872,90.54,49.32,90.54,44.495z M104.724,44.495c0-3.456-2.376-6.048-5.76-6.048
			c-3.385,0-5.761,2.592-5.761,6.048c0,3.457,2.376,6.049,5.761,6.049C102.348,50.544,104.724,47.952,104.724,44.495z"/>
		<path fill="#FFFFFF" d="M117.037,44.495c0-4.824,3.744-8.376,8.425-8.376c4.68,0,8.425,3.552,8.425,8.376
			c0,4.825-3.745,8.377-8.425,8.377C120.781,52.872,117.037,49.32,117.037,44.495z M131.221,44.495c0-3.456-2.376-6.048-5.76-6.048
			c-3.385,0-5.761,2.592-5.761,6.048c0,3.457,2.376,6.049,5.761,6.049C128.845,50.544,131.221,47.952,131.221,44.495z"/>
		<path fill="#FFFFFF" d="M147.013,38.615h-4.849v-2.28h12.265v2.28h-4.848v14.041h-2.568V38.615z"/>
		<path fill="#FFFFFF" d="M165.133,48.36c0.744,1.439,2.016,2.208,3.696,2.208c1.728,0,2.88-0.816,2.88-2.137
			c0-1.536-1.152-2.063-2.592-2.712l-1.128-0.504c-2.4-1.057-4.033-2.305-4.033-4.849c0-2.496,1.849-4.248,4.537-4.248
			c2.088,0,3.624,0.84,4.656,2.568l-1.944,1.271c-0.624-1.056-1.44-1.584-2.664-1.584c-1.32,0-2.088,0.769-2.088,1.896
			c0,1.296,0.792,1.8,2.567,2.592l1.129,0.504c2.472,1.104,4.104,2.232,4.104,4.993c0,3-2.304,4.512-5.4,4.512
			c-2.76,0-4.776-1.344-5.88-3.432L165.133,48.36z"/>
		<path fill="#FFFFFF" d="M187.214,52.656h-2.568V36.335h4.176c4.488,0,6.961,2.472,6.961,6.24c0,3.744-2.496,6.217-6.961,6.217
			h-1.607V52.656z M188.726,46.512c3.145,0,4.416-1.488,4.416-3.937c0-2.472-1.296-3.96-4.416-3.96h-1.512v7.896H188.726z"/>
		<path fill="#FFFFFF" d="M217.358,52.656h-3.048l-2.784-3.96c-0.36,0.048-0.769,0.071-1.177,0.071h-1.607v3.889h-2.568V36.335
			h4.176c4.488,0,6.961,2.472,6.961,6.24c0,2.521-1.128,4.465-3.265,5.448L217.358,52.656z M210.253,46.56
			c3.145,0,4.416-1.488,4.416-3.984c0-2.472-1.296-3.96-4.416-3.96h-1.512v7.944H210.253z"/>
		<path fill="#FFFFFF" d="M227.99,36.335h2.567v16.321h-2.567V36.335z"/>
		<path fill="#FFFFFF" d="M244.262,41.928v10.729h-2.4V36.095h0.191l10.465,10.969V36.335h2.4v16.562h-0.191L244.262,41.928z"/>
		<path fill="#FFFFFF" d="M265.333,44.495c0-4.824,3.696-8.376,8.376-8.376c3.024,0,4.849,1.08,6.193,2.592l-1.776,1.681
			c-0.984-1.08-2.112-1.944-4.488-1.944c-3.312,0-5.641,2.592-5.641,6.048c0,3.457,2.353,6.049,6.072,6.049
			c1.776,0,3.024-0.408,3.961-1.032v-1.848h-4.369v-2.28h6.745v5.353c-1.368,1.128-3.265,2.136-6.337,2.136
			C269.053,52.872,265.333,49.32,265.333,44.495z"/>
		<path fill="#84C18E" d="M292.069,48.36c0.744,1.439,2.016,2.208,3.696,2.208c1.728,0,2.88-0.816,2.88-2.137
			c0-1.536-1.152-2.063-2.592-2.712l-1.128-0.504c-2.4-1.057-4.033-2.305-4.033-4.849c0-2.496,1.849-4.248,4.537-4.248
			c2.088,0,3.624,0.84,4.656,2.568l-1.944,1.271c-0.624-1.056-1.44-1.584-2.664-1.584c-1.32,0-2.088,0.769-2.088,1.896
			c0,1.296,0.792,1.8,2.567,2.592l1.129,0.504c2.472,1.104,4.104,2.232,4.104,4.993c0,3-2.304,4.512-5.4,4.512
			c-2.76,0-4.776-1.344-5.88-3.432L292.069,48.36z"/>
		<path fill="#84C18E" d="M314.509,38.615h-4.849v-2.28h12.265v2.28h-4.848v14.041h-2.568V38.615z"/>
		<path fill="#84C18E" d="M331.86,46.896V36.335h2.568v10.417c0,2.616,1.297,3.792,3.673,3.792c2.352,0,3.648-1.176,3.648-3.792
			V36.335h2.568v10.561c0,3.984-2.688,5.977-6.217,5.977C334.548,52.872,331.86,50.88,331.86,46.896z"/>
		<path fill="#84C18E" d="M355.453,36.335h4.608c5.328,0,8.593,3.336,8.593,8.16c0,4.825-3.24,8.161-8.593,8.161h-4.608V36.335z
			 M359.917,50.376c4.225,0,6.073-2.424,6.073-5.881c0-3.456-1.849-5.88-6.073-5.88h-1.896v11.761H359.917z"/>
		<path fill="#84C18E" d="M379.165,36.335h2.567v16.321h-2.567V36.335z"/>
		<path fill="#84C18E" d="M392.245,44.495c0-4.824,3.744-8.376,8.425-8.376c4.68,0,8.425,3.552,8.425,8.376
			c0,4.825-3.745,8.377-8.425,8.377C395.989,52.872,392.245,49.32,392.245,44.495z M406.429,44.495c0-3.456-2.376-6.048-5.76-6.048
			c-3.385,0-5.761,2.592-5.761,6.048c0,3.457,2.376,6.049,5.761,6.049C404.053,50.544,406.429,47.952,406.429,44.495z"/>
		<path fill="#84C18E" d="M419.964,48.36c0.744,1.439,2.016,2.208,3.696,2.208c1.728,0,2.88-0.816,2.88-2.137
			c0-1.536-1.152-2.063-2.592-2.712l-1.128-0.504c-2.4-1.057-4.033-2.305-4.033-4.849c0-2.496,1.849-4.248,4.537-4.248
			c2.088,0,3.624,0.84,4.656,2.568l-1.944,1.271c-0.624-1.056-1.44-1.584-2.664-1.584c-1.32,0-2.088,0.769-2.088,1.896
			c0,1.296,0.792,1.8,2.567,2.592l1.129,0.504c2.472,1.104,4.104,2.232,4.104,4.993c0,3-2.304,4.512-5.4,4.512
			c-2.76,0-4.776-1.344-5.88-3.432L419.964,48.36z"/>
	</g>
</g>
</svg>
